<svg xmlns="http://www.w3.org/2000/svg" viewBox="0 0 110.3 165.77"><defs><style>.cls-1{fill:#4b4947;}</style></defs><g id="Layer_2" data-name="Layer 2"><g id="Layer_1-2" data-name="Layer 1"><path class="cls-1" d="M110.29,82.88v-.51l0-.2h0a122,122,0,0,0-3-25.73A101.85,101.85,0,0,0,98,30.89c-4.81-9-10.55-16.21-17-21.42a46.27,46.27,0,0,0-12-7A37.23,37.23,0,0,0,57.5.05l-.43,0c-.69,0-1.32,0-1.92,0s-1.22,0-1.91,0H53A37.08,37.08,0,0,0,41.39,2.43a46.38,46.38,0,0,0-12,7c-6.51,5.21-12.24,12.42-17,21.42A101.87,101.87,0,0,0,3,56.44,121.33,121.33,0,0,0,0,82.17H0V83.4l0,.2H0a123.47,123.47,0,0,0,3,25.73,101.87,101.87,0,0,0,9.33,25.55c4.81,9,10.54,16.21,17.05,21.42a45.94,45.94,0,0,0,12,7,37.38,37.38,0,0,0,12.88,2.42h2.14a36.7,36.7,0,0,0,12.49-2.41,46.27,46.27,0,0,0,12-7c6.5-5.21,12.24-12.42,17-21.42a101.85,101.85,0,0,0,9.32-25.55,122,122,0,0,0,3-25.73h0Zm-10,24.94a101.13,101.13,0,0,1-8,24.15,74.07,74.07,0,0,1-6.46,10.87,54.59,54.59,0,0,1-8.36,9.34A41.05,41.05,0,0,1,67.1,158.9c-3.71,1.59-6,2.68-11.43,2.68a28.48,28.48,0,0,1-12.46-2.68,41.1,41.1,0,0,1-10.37-6.72,54.14,54.14,0,0,1-8.35-9.34A74.11,74.11,0,0,1,18,132a101.13,101.13,0,0,1-8-24.15A127.1,127.1,0,0,1,10,58,101.13,101.13,0,0,1,18,33.8a74.22,74.22,0,0,1,6.47-10.88,54.81,54.81,0,0,1,8.35-9.33A41.05,41.05,0,0,1,43.2,6.87,33.2,33.2,0,0,1,55.15,4.15,33.4,33.4,0,0,1,67.1,6.86a41.42,41.42,0,0,1,10.37,6.73,55.67,55.67,0,0,1,8.35,9.33A74.71,74.71,0,0,1,92.28,33.8a101.13,101.13,0,0,1,8,24.15,127.63,127.63,0,0,1,2.47,24.92,127.94,127.94,0,0,1-2.47,24.95"/><path class="cls-1" d="M52.89,115.67c-5.39-1-10-1.91-10-4.28,0-1,.74-1.8,2.19-2.4,2-.82,5.16-1.23,9.54-1.23,5,0,8.51.6,10.37,1.78a3.4,3.4,0,0,1,1.72,3.18v0h3.09v0a11.73,11.73,0,0,0-2.3-7.48c-2.39-3-6.55-4.55-12.37-4.55-11.32,0-15.34,5.73-15.34,10.63,0,3.75,1.88,6.45,5.75,8.27,3.37,1.58,7.81,2.28,11.73,2.9,5.81.92,10.83,1.71,10.83,4.94s-3.77,4.81-12.23,4.81c-9.26,0-13.57-2.51-13.57-7.9v0h-3.1v0a16.59,16.59,0,0,0,2.54,9.3c2.57,3.76,7,5.67,13.09,5.67,5.84,0,10.26-1.5,13.13-4.45A11.4,11.4,0,0,0,71.15,127c0-7.85-10.12-9.77-18.26-11.31"/><path class="cls-1" d="M44.63,59.72c0,4.73,1.09,7.87,3.44,9.9s6.35,3.11,12.25,3.11c1.1,0,2.23,0,3.47-.08h.07V66.1h-.08c-7.44.23-11.26-.4-13.16-2.2-1.12-1-1.62-2.53-1.69-4.95V41.74h16v-6h-16V23.23H45.08l-.14,12.55h-6v6h5.71Z"/><polygon class="cls-1" points="82.55 59.27 82.55 59.34 82.42 59.34 82.42 82.06 27.76 82.06 27.76 59.27 22.82 59.27 22.82 110.58 25.38 110.58 27.76 110.52 27.76 89.18 82.42 89.18 82.42 110.58 87.41 110.65 87.49 110.65 87.49 59.27 82.55 59.27"/></g></g></svg>