<svg xmlns="http://www.w3.org/2000/svg" viewBox="0 0 344 51.42"><defs><style>.cls-1{fill:#4b4947;}</style></defs><g id="Layer_2" data-name="Layer 2"><g id="Layer_1-2" data-name="Layer 1"><path class="cls-1" d="M4,29.85V16H0V11.84H4.25L4.35,3H7v8.86H18.28V16H7V29.3c.11,3.92,1.8,5.39,10.56,5.12v4.51c-.87.06-1.69.06-2.45.06C6.8,39,4,36.21,4,29.85"/><path class="cls-1" d="M23.62.75h2.81V18.91h.17a13.51,13.51,0,0,1,12.5-7.83c6,0,9.41,4.57,9.41,11.37V38.82H45.75V24.08c0-5.27-1.69-7.83-8.65-7.83-9.09,0-10.56,5.55-10.56,9.25V38.82H23.62Z"/><path class="cls-1" d="M51.38,25.17c0-7.83,5.28-14,13.05-14,6.26,0,11.7,4.08,11.7,13.54v3.05H53.5c0,3.37,2.88,6.26,10.93,6.53,6.21-.16,9.36-1.36,9.36-4.52H76c0,4.9-4.68,9.69-11.59,9.69-8.81,0-13.05-6.42-13.05-14.31m22.68-2.28c0-2.23-1.58-6.53-9.84-6.53-8.6,0-10.61,3.59-10.61,6.53Z"/><path class="cls-1" d="M127.22,31c0-6.5,5.45-9,13.49-9h7.92c-.22-5.5-3.24-6-9.35-6-6.28,0-8.7,2.2-8.7,3.91h-2.26c0-5.34,6.06-9.14,11.34-9.14,6.94,0,11,3.8,11,11.56V39H148.3l.06-4.79c-1.65,3.14-6,5.51-10.9,5.51-5.28,0-10.24-3.09-10.24-8.64m21.3-4-6.6-.06c-8.75,0-12.44,1.21-12.44,4,0,2.31,2.48,3.52,7.59,3.52,4.85,0,11-2.64,11.45-7.43"/><path class="cls-1" d="M181,25.52c0,8-3.57,14.09-11.33,14.09a12.83,12.83,0,0,1-11.51-7.43v18h-3V11.65h3v7A12.92,12.92,0,0,1,169.69,11C177.45,11,181,17.32,181,25.52m-2.25,0c0-5.83-2.76-9.3-10.29-9.3-7.38,0-10.19,3.47-10.19,9.3,0,5.67,2.81,9.08,10.19,9.08,7.53,0,10.29-3.41,10.29-9.08"/><path class="cls-1" d="M210.54,25.52c0,8-3.57,14.09-11.33,14.09a12.83,12.83,0,0,1-11.51-7.43v18h-3V11.65h3v7A12.92,12.92,0,0,1,199.21,11c7.76,0,11.33,6.33,11.33,14.53m-2.25,0c0-5.83-2.76-9.3-10.3-9.3-7.37,0-10.18,3.47-10.18,9.3,0,5.67,2.81,9.08,10.18,9.08,7.54,0,10.3-3.41,10.3-9.08"/><path class="cls-1" d="M234.22,11.52V27.36c-.5,4.79-6.61,7.43-11.45,7.43-4,0-5.9-3-6.8-5.89-.65-2.24-.78-10.44-.8-14.73V11.52h-2.79V31.38c0,5.56,5.49,8.64,10.77,8.64,4.85,0,9.15-2.32,10.84-5.4v8.05s0,4.1-1.77,4.43c-2.38.47-4.77-2.45-8.61-4a7.09,7.09,0,0,0-2.41-.44h0s-5.41-.51-6.82,4.38h0a7.41,7.41,0,0,0-.31,3.16h2.19c-.09-.79-.19-3.94,4.5-2.47h0a17.73,17.73,0,0,1,3.5,1.52c.57.34,3.69,2.15,5.81,2.15A5.81,5.81,0,0,0,235.28,48h0a14.29,14.29,0,0,0,1.07-5.26V11.52Z"/><path class="cls-1" d="M98.25.57h3.09V18.92h.17A12.79,12.79,0,0,1,113.59,11c6.1,0,10,4.61,10,11.48V39h-2.78V24.14c0-5.33-1.71-7.92-8.74-7.92-9.17,0-10.66,5.61-10.66,9.34V39h-3.2Z"/><polygon class="cls-1" points="282.95 0 285.91 0 285.91 23.5 299.83 11.23 307.15 11.23 297.02 20.14 308.2 38.52 305.17 38.52 295.15 21.74 285.91 29.83 285.91 38.52 282.95 38.52 282.95 0"/><rect class="cls-1" x="310.98" y="11.23" width="3.66" height="27.3"/><path class="cls-1" d="M318.65,11.23h2.85v7.15h.17a13.92,13.92,0,0,1,12.81-7.92c6.11,0,9.52,4.62,9.52,11.5V38.53h-3V23.61c0-5.34-1.71-7.92-8.75-7.92-9.19,0-10.68,5.61-10.68,9.35V38.53h-3Z"/><path class="cls-1" d="M255.68,28h2.23c0,3.59,2.56,5.87,10.06,5.87,7.23,0,9.07-1.52,9.07-3.58,0-5.71-20.92-1.2-20.92-11.91,0-3.42,2.72-7.82,11.3-7.82,9.9,0,10.82,6,10.82,8.86H276c0-1.42-.43-3.7-9-3.7-7.22,0-8.69,1.52-8.69,2.72,0,4.4,20.92,1.85,20.92,11.52,0,3.37-2.33,9.08-12.06,9.08-10.38,0-11.53-7.45-11.53-11"/></g></g></svg>